IKResults
version=1
nRows=12
nColumns=24
inDegrees=yes

Units are S.I. units (second, meters, Newtons, ...)
If the header above contains a line with 'inDegrees', this indicates whether rotational values are in degrees (yes) or radians (no).

endheader
time	pelvis_tilt	pelvis_list	pelvis_rotation	pelvis_tx	pelvis_ty	pelvis_tz	hip_flexion_r	hip_adduction_r	hip_rotation_r	knee_angle_r	ankle_angle_r	subtalar_angle_r	mtp_angle_r	hip_flexion_l	hip_adduction_l	hip_rotation_l	knee_angle_l	ankle_angle_l	subtalar_angle_l	mtp_angle_l	lumbar_extension	lumbar_bending	lumbar_rotation
      5.15000000	      3.35587802	     -0.04147793	    -94.45357569	     -0.25514824	      0.93945743	     -2.05393378	     -5.81370280	     -3.73515904	     -0.61364307	    -47.46707956	     -4.01192457	      1.64695285	      0.00000000	     28.94672654	      6.38930995	      1.67232450	    -23.93641469	     -0.99303136	    -18.48704023	      0.00000000	     -9.43158250	     -8.54677924	     14.02797928
      5.16000000	      3.71793591	     -0.29519879	    -94.18880235	     -0.25394006	      0.94094970	     -2.03843587	     -4.20229241	     -4.69397754	     -1.60526542	    -50.73732657	     -7.22727113	      1.18994310	      0.00000000	     28.21197688	      7.07527181	      1.73374627	    -24.82056242	     -0.64164596	    -18.69023439	      0.00000000	     -9.65862222	     -8.92708274	     13.38739033
      5.17000000	      4.04311074	     -0.51507831	    -93.88725393	     -0.25263878	      0.94284179	     -2.02316240	     -2.50459434	     -5.46910132	     -2.28875468	    -53.75335357	    -11.17454235	     -2.50696353	      0.00000000	     27.18682398	      7.73938965	      1.86637618	    -25.25941105	      0.31287642	    -18.49903445	      0.00000000	     -9.80140838	     -9.26000571	     12.75893760
      5.18000000	      4.35069993	     -0.70138042	    -93.58141820	     -0.25135981	      0.94506746	     -2.00862917	     -0.74712455	     -6.00595945	     -2.52116344	    -56.40055592	    -13.44509054	     -3.67906376	      0.00000000	     26.06400410	      8.40801481	      1.99179251	    -25.36555767	      1.09196264	    -18.59392585	      0.00000000	    -10.11903043	     -9.50230086	     11.78830116
      5.19000000	      4.60390949	     -0.88471850	    -93.28516634	     -0.25019160	      0.94744063	     -1.99436495	      1.00939205	     -6.42888455	     -2.70434845	    -58.93055858	    -12.75782445	     -6.07595122	      0.00000000	     24.94423521	      9.00764750	      2.30300757	    -25.46014762	      1.80132327	    -18.62827093	      0.00000000	    -10.38585921	     -9.70368154	     11.20289588
      5.20000000	      4.67768873	     -1.11730933	    -92.97906138	     -0.24930222	      0.94988924	     -1.98029255	      2.74554150	     -6.56617930	     -2.85479025	    -61.47209535	    -11.39711722	     -7.76421914	      0.00000000	     23.82536428	      9.39676995	      2.60615507	    -25.70333380	      2.51513162	    -18.64986124	      0.00000000	    -10.68036403	     -9.69987571	     10.64848423
      5.21000000	      4.67352895	     -1.38740675	    -92.71878767	     -0.24851912	      0.95250194	     -1.96633692	      4.48969054	     -6.53732435	     -2.82786672	    -63.69946998	     -9.51004085	     -9.14496078	      0.00000000	     22.55532762	      9.70392108	      3.11612220	    -25.76688229	      3.31041259	    -18.74834542	      0.00000000	    -11.06348582	     -9.62763700	     10.06796363
      5.22000000	      4.58194797	     -1.72706725	    -92.43673405	     -0.24774224	      0.95527092	     -1.95227269	      6.17064766	     -6.38332341	     -2.86471761	    -65.45819372	     -7.85703812	    -10.28293461	      0.00000000	     21.20579682	      9.90858364	      3.71846597	    -25.89301030	      4.12819825	    -18.84831996	      0.00000000	    -11.53675448	     -9.43105284	      9.50034997
      5.23000000	      4.42235618	     -2.00265687	    -92.27375606	     -0.24719754	      0.95790464	     -1.93871540	      8.04888111	     -6.09704996	     -2.75897436	    -67.00645081	     -6.54439509	    -11.35170555	      0.00000000	     19.91594089	      9.99602142	      4.26269576	    -25.89743970	      4.94915069	    -18.99278746	      0.00000000	    -11.91974921	     -9.07913247	      9.01344686
      5.24000000	      4.19055160	     -2.28688738	    -92.16800303	     -0.24683723	      0.96049666	     -1.92519966	      9.88830929	     -5.68501835	     -2.60268162	    -68.17193362	     -5.22025011	    -12.60586223	      0.00000000	     18.61896273	      9.95623053	      4.73520926	    -25.94274924	      5.72205642	    -19.10936739	      0.00000000	    -12.31622520	     -8.69658993	      8.64286872
      5.25000000	      3.85522342	     -2.62678933	    -92.06090140	     -0.24658663	      0.96299403	     -1.91157952	     11.58323455	     -5.10911687	     -2.46110172	    -68.97302803	     -4.04389630	    -14.00376671	      0.00000000	     17.29828397	      9.73696292	      4.87456272	    -26.03374384	      6.47225998	    -19.06394401	      0.00000000	    -12.78211664	     -8.22602775	      8.30573053
      5.26000000	      3.56094821	     -2.99797531	    -91.95459472	     -0.24617359	      0.96542453	     -1.89785268	     13.24944440	     -4.65994973	     -2.44842832	    -69.56675976	     -3.00231528	    -15.50385869	      0.00000000	     15.78662251	      9.55526822	      5.00540104	    -25.81781080	      7.23126206	    -18.93073693	      0.00000000	    -13.21316810	     -7.77463912	      7.99016159
